<svg width="64" height="64" viewBox="-8 -8 48 48" xmlns="http://www.w3.org/2000/svg">
  <rect x="-8" y="-8" width="48" height="48" rx="12" fill="#f56868"/>
  <g fill="none" stroke="#fff" stroke-width="2" stroke-miterlimit="10">
    <rect x="3" y="8" width="26" height="18"/>
    <line x1="7" x2="7" y1="5" y2="11"/>
    <line x1="13" x2="13" y1="5" y2="11"/>
    <line x1="19" x2="19" y1="5" y2="11"/>
    <line x1="25" x2="25" y1="5" y2="11"/>
    <line x1="13" x2="13" y1="13" y2="15"/>
    <line x1="19" x2="19" y1="13" y2="15"/>
    <line x1="25" x2="25" y1="13" y2="15"/>
    <line x1="7" x2="7" y1="17" y2="19"/>
    <line x1="13" x2="13" y1="17" y2="19"/>
    <line x1="7" x2="7" y1="21" y2="23"/>
    <line x1="13" x2="13" y1="21" y2="23"/>
    <line x1="19" x2="19" y1="17" y2="19"/>
    <line x1="19" x2="19" y1="21" y2="23"/>
    <line x1="25" x2="25" y1="17" y2="19"/>
  </g>
</svg>
